<?xml version="1.0" encoding="UTF-8" standalone="no"?>
<!-- Created with Inkscape (http://www.inkscape.org/) -->

<svg
   xmlns:dc="http://purl.org/dc/elements/1.1/"
   xmlns:cc="http://creativecommons.org/ns#"
   xmlns:rdf="http://www.w3.org/1999/02/22-rdf-syntax-ns#"
   xmlns:svg="http://www.w3.org/2000/svg"
   xmlns="http://www.w3.org/2000/svg"
   xmlns:sodipodi="http://sodipodi.sourceforge.net/DTD/sodipodi-0.dtd"
   xmlns:inkscape="http://www.inkscape.org/namespaces/inkscape"
   width="1000"
   height="130"
   viewBox="0 0 1000 129.99999"
   id="svg2"
   version="1.1"
   inkscape:version="0.91 r13725"
   sodipodi:docname="common-services.svg"
   inkscape:export-filename="C:\xampp\htdocs\blogButterCMS\src\common-services.png"
   inkscape:export-xdpi="39.016537"
   inkscape:export-ydpi="39.016537">
  <defs
     id="defs4">
    <clipPath
       id="clipPath4150"
       clipPathUnits="userSpaceOnUse">
      <path
         inkscape:connector-curvature="0"
         id="path4152"
         d="M 0,768 1024,768 1024,0 0,0 0,768 Z" />
    </clipPath>
  </defs>
  <sodipodi:namedview
     id="base"
     pagecolor="#ffffff"
     bordercolor="#666666"
     borderopacity="1.0"
     inkscape:pageopacity="0.0"
     inkscape:pageshadow="2"
     inkscape:zoom="0.49497475"
     inkscape:cx="-330.81236"
     inkscape:cy="84.044963"
     inkscape:document-units="px"
     inkscape:current-layer="layer1"
     showgrid="false"
     units="px"
     inkscape:window-width="1858"
     inkscape:window-height="1057"
     inkscape:window-x="54"
     inkscape:window-y="-8"
     inkscape:window-maximized="1" />
  <metadata
     id="metadata7">
    <rdf:RDF>
      <cc:Work
         rdf:about="">
        <dc:format>image/svg+xml</dc:format>
        <dc:type
           rdf:resource="http://purl.org/dc/dcmitype/StillImage" />
        <dc:title />
      </cc:Work>
    </rdf:RDF>
  </metadata>
  <g
     inkscape:label="Layer 1"
     inkscape:groupmode="layer"
     id="layer1"
     transform="translate(0,-922.36219)">
    <g
       id="g4258"
       transform="translate(600.45702,232.396)">
      <g
         transform="matrix(1.25,0,0,-1.25,-372.23729,779.35649)"
         id="g4154">
        <path
           inkscape:connector-curvature="0"
           id="path4156"
           style="fill:#ff4b28;fill-opacity:1;fill-rule:nonzero;stroke:none"
           d="m 0,0 c 1.513,0 2.93,0.315 4.252,0.946 1.323,0.63 2.458,1.481 3.403,2.552 0.945,1.07 1.702,2.331 2.268,3.777 0.567,1.453 0.851,2.996 0.851,4.633 l 0,14.364 c 0,1.639 -0.284,3.23 -0.851,4.773 C 9.357,32.588 8.6,33.959 7.655,35.156 6.71,36.353 5.575,37.314 4.252,38.039 2.93,38.763 1.513,39.125 0,39.125 l -5.764,0 c -1.512,0 -2.931,-0.362 -4.253,-1.086 -1.323,-0.725 -2.472,-1.686 -3.45,-2.883 -0.976,-1.197 -1.733,-2.568 -2.268,-4.111 -0.535,-1.543 -0.804,-3.134 -0.804,-4.773 l 0,-14.364 c 0,-1.637 0.269,-3.18 0.804,-4.633 0.535,-1.446 1.292,-2.707 2.268,-3.777 0.978,-1.071 2.127,-1.922 3.45,-2.552 C -8.695,0.315 -7.276,0 -5.764,0 L 0,0 Z m -5.764,-4.723 c -2.269,0 -4.364,0.394 -6.286,1.18 -1.92,0.787 -3.59,1.906 -5.008,3.355 -1.418,1.448 -2.521,3.197 -3.308,5.245 -0.788,2.047 -1.181,4.331 -1.181,6.851 l 0,14.364 c 0,2.521 0.393,4.852 1.181,6.994 0.787,2.143 1.875,4.001 3.261,5.575 1.386,1.576 3.055,2.805 5.008,3.687 1.953,0.882 4.064,1.323 6.333,1.323 l 5.764,0 c 2.268,0 4.363,-0.441 6.285,-1.323 1.921,-0.882 3.575,-2.111 4.962,-3.687 1.385,-1.574 2.472,-3.432 3.26,-5.575 0.787,-2.142 1.18,-4.473 1.18,-6.994 l 0,-14.364 c 0,-2.52 -0.393,-4.804 -1.18,-6.851 C 13.719,3.009 12.617,1.26 11.2,-0.188 9.782,-1.637 8.112,-2.756 6.19,-3.543 4.268,-4.329 2.206,-4.723 0,-4.723 l -5.764,0 z m 35.91,43.942 0,-40.636 c 0,-0.818 -0.251,-1.48 -0.754,-1.986 -0.505,-0.503 -1.104,-0.753 -1.797,-0.753 -0.756,0 -1.354,0.25 -1.796,0.753 -0.441,0.506 -0.661,1.104 -0.661,1.799 l 0,41.486 c 0,1.07 0.363,2.015 1.086,2.834 0.725,0.82 1.685,1.229 2.882,1.229 l 43.095,0 c 1.953,0 3.828,-0.347 5.623,-1.04 1.796,-0.693 3.371,-1.717 4.725,-3.071 1.355,-1.355 2.441,-3.009 3.26,-4.962 0.82,-1.953 1.229,-4.188 1.229,-6.709 l 0,-29.767 c 0,-0.695 -0.251,-1.293 -0.756,-1.799 -0.503,-0.503 -1.101,-0.753 -1.796,-0.753 -0.755,0 -1.353,0.25 -1.795,0.753 -0.441,0.506 -0.662,1.104 -0.662,1.799 l 0,29.767 c 0,1.638 -0.267,3.134 -0.803,4.489 -0.536,1.354 -1.244,2.519 -2.126,3.495 -0.883,0.978 -1.922,1.734 -3.119,2.27 -1.196,0.536 -2.457,0.802 -3.78,0.802 l -13.608,0 0,-40.636 c 0,-0.818 -0.253,-1.48 -0.757,-1.986 -0.503,-0.503 -1.103,-0.753 -1.795,-0.753 -0.756,0 -1.354,0.25 -1.795,0.753 -0.441,0.506 -0.661,1.104 -0.661,1.799 l 0,40.823 -23.439,0 z m 71.352,0 0,-40.636 c 0,-0.818 -0.252,-1.48 -0.755,-1.986 -0.505,-0.503 -1.103,-0.753 -1.797,-0.753 -0.756,0 -1.353,0.25 -1.796,0.753 -0.441,0.506 -0.661,1.104 -0.661,1.799 l 0,41.486 c 0,1.07 0.362,2.015 1.088,2.834 0.723,0.82 1.683,1.229 2.881,1.229 l 43.094,0 c 1.954,0 3.827,-0.347 5.622,-1.04 1.797,-0.693 3.371,-1.717 4.727,-3.071 1.353,-1.355 2.441,-3.009 3.26,-4.962 0.82,-1.953 1.229,-4.188 1.229,-6.709 l 0,-29.767 c 0,-0.695 -0.251,-1.293 -0.756,-1.799 -0.503,-0.503 -1.103,-0.753 -1.796,-0.753 -0.755,0 -1.355,0.25 -1.795,0.753 -0.442,0.506 -0.663,1.104 -0.663,1.799 l 0,29.767 c 0,1.638 -0.267,3.134 -0.802,4.489 -0.537,1.354 -1.245,2.519 -2.128,3.495 -0.881,0.978 -1.92,1.734 -3.118,2.27 -1.195,0.536 -2.456,0.802 -3.78,0.802 l -13.607,0 0,-40.636 c 0,-0.818 -0.253,-1.48 -0.757,-1.986 -0.505,-0.503 -1.103,-0.753 -1.795,-0.753 -0.758,0 -1.356,0.25 -1.795,0.753 -0.442,0.506 -0.662,1.104 -0.662,1.799 l 0,40.823 -23.438,0 z M 189.388,0 c 1.513,0 2.929,0.315 4.252,0.946 1.323,0.63 2.46,1.481 3.403,2.552 0.943,1.07 1.7,2.331 2.267,3.777 0.567,1.453 0.852,2.996 0.852,4.633 l 0,14.364 c 0,1.639 -0.285,3.23 -0.852,4.773 -0.567,1.543 -1.324,2.914 -2.267,4.111 -0.943,1.197 -2.08,2.158 -3.403,2.883 -1.323,0.724 -2.739,1.086 -4.252,1.086 l -5.766,0 c -1.511,0 -2.929,-0.362 -4.252,-1.086 -1.324,-0.725 -2.473,-1.686 -3.449,-2.883 -0.976,-1.197 -1.732,-2.568 -2.268,-4.111 -0.536,-1.543 -0.804,-3.134 -0.804,-4.773 l 0,-14.364 c 0,-1.637 0.268,-3.18 0.804,-4.633 0.536,-1.446 1.292,-2.707 2.268,-3.777 0.976,-1.071 2.125,-1.922 3.449,-2.552 C 180.693,0.315 182.111,0 183.622,0 l 5.766,0 z m -5.766,-4.723 c -2.267,0 -4.362,0.394 -6.284,1.18 -1.921,0.787 -3.591,1.906 -5.008,3.355 -1.417,1.448 -2.521,3.197 -3.307,5.245 -0.789,2.047 -1.182,4.331 -1.182,6.851 l 0,14.364 c 0,2.521 0.393,4.852 1.182,6.994 0.786,2.143 1.873,4.001 3.259,5.575 1.387,1.576 3.056,2.805 5.01,3.687 1.953,0.882 4.063,1.323 6.33,1.323 l 5.766,0 c 2.268,0 4.363,-0.441 6.283,-1.323 1.922,-0.882 3.576,-2.111 4.964,-3.687 1.383,-1.574 2.47,-3.432 3.26,-5.575 0.787,-2.142 1.18,-4.473 1.18,-6.994 l 0,-14.364 c 0,-2.52 -0.393,-4.804 -1.18,-6.851 -0.79,-2.048 -1.891,-3.797 -3.307,-5.245 -1.419,-1.449 -3.088,-2.568 -5.01,-3.355 -1.922,-0.786 -3.986,-1.18 -6.19,-1.18 l -5.766,0 z m 61.617,32.886 c 0,1.638 -0.268,3.134 -0.801,4.489 -0.537,1.354 -1.244,2.519 -2.128,3.495 -0.883,0.978 -1.922,1.734 -3.118,2.27 -1.198,0.536 -2.459,0.802 -3.78,0.802 l -15.878,0 0,-40.636 c 0,-0.818 -0.251,-1.48 -0.755,-1.986 -0.506,-0.503 -1.102,-0.753 -1.796,-0.753 -0.693,0 -1.275,0.25 -1.749,0.753 -0.472,0.506 -0.708,1.104 -0.708,1.799 l 0,41.486 c 0,1.07 0.362,2.015 1.086,2.834 0.723,0.82 1.684,1.229 2.882,1.229 l 16.918,0 c 1.952,0 3.826,-0.347 5.622,-1.04 1.797,-0.693 3.386,-1.717 4.772,-3.071 1.386,-1.355 2.474,-3.009 3.261,-4.962 0.786,-1.953 1.182,-4.188 1.182,-6.709 l 0,-29.767 c 0,-0.695 -0.252,-1.293 -0.755,-1.799 -0.506,-0.503 -1.105,-0.753 -1.798,-0.753 -0.693,0 -1.275,0.25 -1.747,0.753 -0.475,0.506 -0.71,1.104 -0.71,1.799 l 0,29.767 z M -33.359,43.945 c 0.693,0 1.259,-0.22 1.7,-0.662 0.442,-0.44 0.662,-1.008 0.662,-1.7 0,-1.576 -0.787,-2.364 -2.362,-2.364 l -10.68,0 c -4.725,0 -8.158,-1.26 -10.3,-3.779 -2.142,-2.521 -3.213,-6.111 -3.213,-10.773 l 0,-8.98 c 0,-4.912 1.117,-8.661 3.354,-11.246 2.237,-2.581 5.622,-3.874 10.159,-3.874 l 10.68,0 c 0.693,0 1.259,-0.219 1.7,-0.662 0.442,-0.44 0.662,-1.007 0.662,-1.7 0,-0.694 -0.22,-1.261 -0.662,-1.701 -0.441,-0.441 -1.007,-0.66 -1.7,-0.66 l -10.68,0 c -6.236,0 -10.867,1.605 -13.892,4.819 -3.023,3.211 -4.536,8.252 -4.536,15.119 l 0,8.885 c 0,6.362 1.496,11.166 4.489,14.412 2.993,3.244 7.64,4.866 13.939,4.866 l 10.68,0 z" />
      </g>
      <g
         transform="matrix(1.25,0,0,-1.25,4.4820864,781.60012)"
         id="g4158">
        <path
           inkscape:connector-curvature="0"
           id="path4160"
           style="fill:#5a5a5a;fill-opacity:1;fill-rule:nonzero;stroke:none"
           d="m 0,0 c 0,0.693 0.221,1.26 0.662,1.7 0.44,0.443 1.007,0.662 1.701,0.662 l 13.323,0 c 3.846,0 6.901,0.646 9.169,1.938 2.267,1.293 3.401,3.607 3.401,6.945 0,2.268 -0.883,4.096 -2.645,5.484 -1.763,1.384 -4.285,2.298 -7.56,2.738 l -4.067,0.474 c -4.847,0.504 -8.63,1.669 -11.338,3.496 -2.709,1.826 -4.063,4.883 -4.063,9.166 0,2.332 0.442,4.333 1.322,6.001 0.882,1.67 2.048,3.025 3.496,4.064 1.45,1.04 3.151,1.796 5.105,2.27 1.952,0.471 3.999,0.708 6.14,0.708 l 14.459,0 c 0.758,0 1.373,-0.221 1.845,-0.662 0.47,-0.441 0.708,-1.007 0.708,-1.701 0,-0.694 -0.22,-1.261 -0.661,-1.701 -0.441,-0.441 -1.009,-0.662 -1.701,-0.662 l -14.65,0 C 11.562,40.92 8.978,40.307 6.898,39.077 4.82,37.849 3.78,35.754 3.78,32.793 c 0,-2.647 0.914,-4.521 2.739,-5.623 1.829,-1.102 4.758,-1.907 8.79,-2.41 l 3.592,-0.473 c 4.536,-0.629 8.094,-1.952 10.679,-3.969 2.581,-2.015 3.873,-5.008 3.873,-8.977 0,-2.647 -0.441,-4.836 -1.321,-6.569 -0.883,-1.732 -2.095,-3.135 -3.64,-4.206 -1.543,-1.07 -3.4,-1.827 -5.575,-2.267 -2.176,-0.441 -4.582,-0.662 -7.231,-0.662 l -13.323,0 c -0.694,0 -1.261,0.221 -1.701,0.662 C 0.221,-1.261 0,-0.694 0,0 m 73.807,23.91 0,3.496 c 0,4.474 -1.085,7.86 -3.259,10.159 -2.174,2.3 -5.466,3.449 -9.876,3.449 -4.032,0 -7.165,-1.227 -9.403,-3.685 -2.238,-2.458 -3.357,-5.765 -3.357,-9.923 l 0,-3.496 25.895,0 z M 47.912,19.185 c 0.065,-2.774 0.301,-5.198 0.712,-7.277 0.407,-2.08 1.085,-3.828 2.031,-5.245 0.943,-1.417 2.204,-2.489 3.781,-3.216 1.576,-0.723 3.559,-1.085 5.952,-1.085 l 14.459,0 c 0.757,0 1.354,-0.219 1.796,-0.662 0.442,-0.44 0.663,-1.007 0.663,-1.7 0,-0.694 -0.221,-1.261 -0.663,-1.701 -0.442,-0.441 -1.009,-0.662 -1.701,-0.662 l -14.65,0 c -3.4,0 -6.218,0.457 -8.456,1.371 -2.237,0.914 -4.016,2.3 -5.341,4.157 -1.321,1.858 -2.25,4.192 -2.787,6.993 -0.533,2.805 -0.804,6.097 -0.804,9.878 l 0,7.37 c 0,2.899 0.457,5.496 1.37,7.796 0.914,2.3 2.175,4.221 3.783,5.765 1.603,1.544 3.478,2.725 5.623,3.544 2.141,0.82 4.472,1.229 6.992,1.229 5.921,0 10.427,-1.544 13.513,-4.631 3.086,-3.087 4.631,-7.655 4.631,-13.703 l 0,-4.442 c 0,-1.07 -0.362,-1.968 -1.087,-2.693 -0.724,-0.726 -1.655,-1.086 -2.787,-1.086 l -27.03,0 z m 40.357,24.003 c 0,0.693 0.218,1.291 0.659,1.796 0.442,0.503 1.04,0.756 1.796,0.756 0.691,0 1.292,-0.253 1.796,-0.756 0.503,-0.505 0.755,-1.103 0.755,-1.796 l 0,-1.89 c 2.962,2.962 7.436,4.442 13.417,4.442 l 2.934,0 c 0.755,0 1.371,-0.221 1.843,-0.662 0.471,-0.44 0.708,-1.008 0.708,-1.701 0,-0.693 -0.22,-1.26 -0.662,-1.7 -0.443,-0.442 -1.009,-0.663 -1.702,-0.663 l -3.121,0 c -4.598,0 -7.983,-1.227 -10.157,-3.685 -2.174,-2.458 -3.26,-5.859 -3.26,-10.206 l 0,-27.03 c 0,-0.693 -0.252,-1.274 -0.755,-1.747 -0.504,-0.472 -1.105,-0.709 -1.796,-0.709 -0.756,0 -1.354,0.237 -1.796,0.709 -0.441,0.473 -0.659,1.054 -0.659,1.747 l 0,43.095 z M 146.858,2.551 c -0.44,-1.449 -1.291,-2.629 -2.552,-3.543 -1.258,-0.914 -2.707,-1.371 -4.345,-1.371 -1.573,0 -2.993,0.457 -4.252,1.371 -1.261,0.914 -2.11,2.094 -2.551,3.543 l -11.153,38.463 c -0.063,0.127 -0.144,0.347 -0.237,0.663 -0.092,0.314 -0.139,0.535 -0.139,0.66 0,0.693 0.232,1.292 0.706,1.797 0.475,0.504 1.055,0.755 1.747,0.755 1.325,0 2.144,-0.598 2.459,-1.795 L 137.978,4.063 c 0.312,-1.008 0.974,-1.512 1.983,-1.512 1.198,0 1.892,0.473 2.078,1.418 l 11.528,39.219 c 0.127,0.441 0.412,0.835 0.852,1.183 0.443,0.345 0.947,0.518 1.514,0.518 0.691,0 1.29,-0.251 1.795,-0.755 0.502,-0.505 0.756,-1.104 0.756,-1.797 0,-0.377 -0.033,-0.66 -0.094,-0.849 L 146.858,2.551 Z m 64.644,43.189 c 0.692,0 1.259,-0.221 1.701,-0.662 0.44,-0.44 0.659,-1.008 0.659,-1.701 0,-1.575 -0.787,-2.363 -2.36,-2.363 l -10.682,0 c -4.723,0 -8.159,-1.26 -10.299,-3.779 -2.142,-2.521 -3.213,-6.111 -3.213,-10.774 l 0,-8.98 c 0,-4.911 1.119,-8.66 3.352,-11.245 2.238,-2.583 5.622,-3.874 10.16,-3.874 l 10.682,0 c 0.692,0 1.259,-0.219 1.701,-0.662 0.44,-0.44 0.659,-1.007 0.659,-1.7 0,-0.694 -0.219,-1.261 -0.659,-1.701 -0.442,-0.441 -1.009,-0.662 -1.701,-0.662 l -10.682,0 c -6.236,0 -10.866,1.607 -13.891,4.821 -3.024,3.211 -4.535,8.252 -4.535,15.119 l 0,8.884 c 0,6.363 1.497,11.167 4.488,14.411 2.992,3.246 7.641,4.868 13.938,4.868 l 10.682,0 z m 42.715,-21.83 0,3.496 c 0,4.474 -1.086,7.86 -3.262,10.159 -2.175,2.3 -5.467,3.449 -9.875,3.449 -4.032,0 -7.167,-1.227 -9.403,-3.685 -2.237,-2.458 -3.356,-5.765 -3.356,-9.923 l 0,-3.496 25.896,0 z m -25.896,-4.725 c 0.065,-2.774 0.3,-5.198 0.709,-7.277 0.41,-2.08 1.088,-3.828 2.032,-5.245 0.945,-1.417 2.206,-2.489 3.782,-3.216 1.574,-0.723 3.558,-1.085 5.953,-1.085 l 14.456,0 c 0.758,0 1.359,-0.219 1.8,-0.662 0.438,-0.44 0.659,-1.007 0.659,-1.7 0,-0.694 -0.221,-1.261 -0.659,-1.701 -0.441,-0.441 -1.01,-0.662 -1.701,-0.662 l -14.65,0 c -3.402,0 -6.222,0.457 -8.459,1.371 -2.235,0.914 -4.016,2.3 -5.338,4.157 -1.322,1.858 -2.254,4.192 -2.789,6.993 -0.535,2.805 -0.802,6.097 -0.802,9.878 l 0,7.37 c 0,2.899 0.457,5.496 1.369,7.796 0.914,2.3 2.172,4.221 3.78,5.765 1.609,1.544 3.482,2.725 5.623,3.544 2.143,0.82 4.473,1.229 6.994,1.229 5.923,0 10.427,-1.544 13.514,-4.631 3.088,-3.087 4.63,-7.655 4.63,-13.703 l 0,-4.442 c 0,-1.07 -0.362,-1.968 -1.085,-2.693 -0.728,-0.724 -1.654,-1.086 -2.787,-1.086 l -27.031,0 z M 270.092,0 c 0,0.693 0.221,1.26 0.664,1.7 0.44,0.443 1.007,0.662 1.699,0.662 l 13.325,0 c 3.844,0 6.9,0.646 9.168,1.938 2.269,1.293 3.403,3.607 3.403,6.945 0,2.268 -0.885,4.096 -2.647,5.484 -1.765,1.384 -4.284,2.298 -7.56,2.738 l -4.065,0.474 c -4.85,0.504 -8.631,1.669 -11.341,3.496 -2.708,1.826 -4.063,4.883 -4.063,9.166 0,2.332 0.442,4.333 1.323,6.001 0.881,1.67 2.048,3.025 3.497,4.064 1.45,1.04 3.15,1.796 5.103,2.268 1.953,0.473 4.001,0.71 6.14,0.71 l 14.462,0 c 0.755,0 1.371,-0.221 1.843,-0.662 0.472,-0.441 0.709,-1.007 0.709,-1.701 0,-0.694 -0.221,-1.261 -0.66,-1.701 -0.445,-0.441 -1.009,-0.662 -1.702,-0.662 l -14.652,0 c -3.084,0 -5.669,-0.613 -7.745,-1.843 -2.081,-1.228 -3.119,-3.323 -3.119,-6.284 0,-2.647 0.915,-4.521 2.739,-5.623 1.826,-1.102 4.759,-1.907 8.79,-2.41 l 3.59,-0.473 c 4.538,-0.629 8.096,-1.952 10.682,-3.969 2.581,-2.015 3.873,-5.008 3.873,-8.977 0,-2.647 -0.442,-4.836 -1.321,-6.569 -0.886,-1.732 -2.098,-3.135 -3.64,-4.206 -1.545,-1.07 -3.402,-1.827 -5.576,-2.267 -2.175,-0.441 -4.584,-0.662 -7.231,-0.662 l -13.325,0 c -0.692,0 -1.259,0.221 -1.699,0.662 -0.443,0.44 -0.664,1.007 -0.664,1.701 M -39.219,19.846 c -0.693,0.126 -1.275,0.393 -1.749,0.803 -0.471,0.409 -0.709,0.992 -0.709,1.749 0,0.628 0.254,1.181 0.757,1.653 0.504,0.472 1.103,0.709 1.795,0.709 l 25.8,0 c 0.758,0 1.353,-0.237 1.797,-0.709 0.441,-0.472 0.66,-1.054 0.66,-1.748 0,-1.638 -0.82,-2.457 -2.457,-2.457 l -25.894,0 z" />
      </g>
      <g
         transform="matrix(1.25,0,0,-1.25,214.39658,705.99649)"
         id="g4162">
        <path
           inkscape:connector-curvature="0"
           id="path4164"
           style="fill:#5a5a5a;fill-opacity:1;fill-rule:nonzero;stroke:none"
           d="M 0,0 C 0,0.756 0.223,1.371 0.665,1.843 1.104,2.315 1.701,2.551 2.458,2.551 3.152,2.551 3.75,2.315 4.255,1.843 4.759,1.371 5.01,0.756 5.01,0 l 0,-1.796 C 5.01,-2.489 4.759,-3.072 4.255,-3.544 3.75,-4.016 3.152,-4.252 2.458,-4.252 1.701,-4.252 1.104,-4.016 0.665,-3.544 0.223,-3.072 0,-2.489 0,-1.796 L 0,0 Z m 0,-18.146 c 0,0.694 0.223,1.293 0.665,1.797 0.439,0.504 1.036,0.755 1.793,0.755 0.694,0 1.292,-0.251 1.797,-0.755 0.504,-0.504 0.755,-1.103 0.755,-1.797 l 0,-42.244 c 0,-0.693 -0.251,-1.274 -0.755,-1.747 -0.505,-0.472 -1.103,-0.707 -1.797,-0.707 -0.757,0 -1.354,0.235 -1.793,0.707 C 0.223,-61.664 0,-61.083 0,-60.39 l 0,42.244 z" />
      </g>
      <g
         transform="matrix(0.9454249,0,0,0.9454249,-29.407689,-6.0062691)"
         id="g4252">
        <g
           id="g4166"
           transform="matrix(0.7244277,0,0,-0.7244277,-533.13091,834.44235)">
          <path
             d="m 0,0 29.888,17.227 0,10.545 -37.659,-21.7 -28.104,16.021 0.048,33.21 64.02,36.659 22.534,-13.007 -59.605,-34.934 10.19,-5.89 54.672,32.55 0,-68.392 L 0,-30.063 0,0 Z"
             style="fill:#5a5a5a;fill-opacity:1;fill-rule:nonzero;stroke:none"
             id="path4168"
             inkscape:connector-curvature="0" />
        </g>
        <g
           id="g4170"
           transform="matrix(0.7244277,0,0,-0.7244277,-519.93031,763.6302)">
          <path
             d="m 0,0 c -21.312,-12.258 -42.602,-24.476 -63.893,-36.768 l 0,-21.878 0,-21.876 18.84,-10.876 0.051,0 18.889,-10.905 0,-30.063 -6.526,3.765 -25.412,14.673 0.013,0.023 -25.377,14.65 -6.575,3.795 0,7.47 0,29.344 0,36.817 c 21.298,12.292 42.581,24.61 63.877,36.907 L 0,0 Z"
             style="fill:#ff4b28;fill-opacity:1;fill-rule:nonzero;stroke:none"
             id="path4172"
             inkscape:connector-curvature="0" />
        </g>
      </g>
    </g>
  </g>
</svg>
